# xmcd
#
# Track frame offsets: 
#        150
#        11173
#        21758
#        33047
#        47075
#        57230
#        67697
#        78994
#        90773
#        101125
#        111936
#        123191
#        134737
#        146427
#        156766
#        168363
#        180879
#        191808
#        202613
#        213670
#        225119
#        237110
#        247909
#        259216
#        269837
#        281137
#        291586
#        301518
#        314476
#        326938
#        337861
#
# Disc length: 4664 seconds
#
# Revision: 2
# Processed by: cddbd v1.5.2PL0 Copyright (c) Steve Scherf et al.
# Submitted via: ExactAudioCopyFreeDBPlugin 1.0
#
DISCID=ae12361f
DTITLE=Jim Eanes and The Shenandoah Valley Boys - The Complete Decca Rec
DTITLE=ordings
DYEAR=1999
DGENRE=Bluegrass
TTITLE0=In A Little Spanish Restaurant
TTITLE1=Ridin' The Waves
TTITLE2=I'd Love To Be Your Darling
TTITLE3=I Cried Again
TTITLE4=Between The Lines
TTITLE5=There's No Place Like Home
TTITLE6=Tomorrow May Be Different
TTITLE7=The Beginning Of The End
TTITLE8=Kiss Me! Kiss Me!
TTITLE9=Little Brown Hand
TTITLE10=When The One That You Love Is In Love With You
TTITLE11=Gloomy Tomorrow
TTITLE12=Rose Garden Waltz
TTITLE13=It Takes A Heap Of Livin'
TTITLE14=Plunkin' Rag
TTITLE15=Take This Broken Heart
TTITLE16=The Things I Love About You
TTITLE17=Don't Hand Me That Stuff
TTITLE18=Cedric Special
TTITLE19=Just Suppose
TTITLE20=Shopworn Heart
TTITLE21=Cotton Pickers Stomp
TTITLE22=Wiggle Worm Wiggle
TTITLE23=Possum Hollow
TTITLE24=It's A Shame
TTITLE25=Swet Lovin' Baby
TTITLE26=Don't Go Lookin' For Trouble
TTITLE27=Baby Blue Eyes
TTITLE28=A Prisoner Of War
TTITLE29=I'm No Communist
TTITLE30=They Locked God Outside The Iron Curtain
EXTD=
EXTT0=
EXTT1=
EXTT2=
EXTT3=
EXTT4=
EXTT5=
EXTT6=
EXTT7=
EXTT8=
EXTT9=
EXTT10=
EXTT11=
EXTT12=
EXTT13=
EXTT14=
EXTT15=
EXTT16=
EXTT17=
EXTT18=
EXTT19=
EXTT20=
EXTT21=
EXTT22=
EXTT23=
EXTT24=
EXTT25=
EXTT26=
EXTT27=
EXTT28=
EXTT29=
EXTT30=
PLAYORDER=
